<?xml version="1.0" encoding="utf-8"?>
<svg version="1.1" id="Layer_1"
xmlns="http://www.w3.org/2000/svg"
xmlns:xlink="http://www.w3.org/1999/xlink"
width="550px" height="400px"
xml:space="preserve">
<g id="PathID_1" transform="matrix(0.163129, -0.124094, 0.124094, 0.163129, 308.95, 258.15)" opacity="0.54">
<path style="fill:#47B0E0;fill-opacity:1" d="M149 25.5L149 86.6Q149 112.1 123.55 112.1L25.5 112.1Q0 112.1 0 86.6L0 25.5Q0 0 25.5 0L123.55 0Q149 0 149 25.5" />
</g>
<g id="PathID_2" transform="matrix(0.163129, -0.124094, 0.124094, 0.163129, 308.95, 258.15)" opacity="0.54">
</g>
<g id="PathID_3" transform="matrix(-1.11833, 0.481677, 0.481677, 1.11833, 319, 69.65)" opacity="0.37">
<path style="fill:#FDCE13;fill-opacity:1" d="M149 25.5L149 86.6Q149 112.1 123.55 112.1L25.5 112.1Q0 112.1 0 86.6L0 25.5Q0 0 25.5 0L123.55 0Q149 0 149 25.5" />
</g>
<g id="PathID_4" transform="matrix(-1.11833, 0.481677, 0.481677, 1.11833, 319, 69.65)" opacity="0.37">
</g>
<g id="PathID_5" transform="matrix(1.19441, -0.23677, 0.23677, 1.19441, 161.25, 118.75)" opacity="1">
<path style="fill:#47B0E0;fill-opacity:1" d="M149 25.5L149 86.6Q149 112.1 123.55 112.1L25.5 112.1Q0 112.1 0 86.6L0 25.5Q0 0 25.5 0L123.55 0Q149 0 149 25.5" />
</g>
<g id="PathID_6" transform="matrix(1.19441, -0.23677, 0.23677, 1.19441, 161.25, 118.75)" opacity="1">
</g>
<g id="PathID_7" transform="matrix(1.21765, 0, 0, 1.21765, 172.75, 99.75)" opacity="0.8">
<path style="fill:#760145;fill-opacity:1" d="M149 25.5L149 86.6Q149 112.1 123.55 112.1L25.5 112.1Q0 112.1 0 86.6L0 25.5Q0 0 25.5 0L123.55 0Q149 0 149 25.5" />
</g>
<g id="PathID_8" transform="matrix(1.21765, 0, 0, 1.21765, 172.75, 99.75)" opacity="0.8">
</g>
<g id="PathID_9" transform="matrix(0.26692, -0.143959, 0.143959, 0.26692, 282.4, 245.2)" opacity="0.37">
<path style="fill:#FDCE13;fill-opacity:1" d="M149 25.5L149 86.6Q149 112.1 123.55 112.1L25.5 112.1Q0 112.1 0 86.6L0 25.5Q0 0 25.5 0L123.55 0Q149 0 149 25.5" />
</g>
<g id="PathID_10" transform="matrix(0.26692, -0.143959, 0.143959, 0.26692, 282.4, 245.2)" opacity="0.37">
</g>
<g id="PathID_11" transform="matrix(1.89704, 0, 0, 1.875, 192.45, 201.4)" opacity="1">
<path style="fill:#FFFBFB;fill-opacity:1" d="M2.85 -16.05L2.85 -20.25L27.05 -30.5L27.05 -26L7.9 -18.1L27.05 -10.15L27.05 -5.65L2.85 -16.05" />
</g>
<g id="PathID_12" transform="matrix(1.89704, 0, 0, 1.875, 192.45, 201.4)" opacity="1">
</g>
<g id="PathID_13" transform="matrix(1.89704, 0, 0, 1.875, 249.15, 201.4)" opacity="1">
<path style="fill:#FFFBFB;fill-opacity:1" d="M0 0.65L10.65 -37.3L14.25 -37.3L3.6 0.65L0 0.65" />
</g>
<g id="PathID_14" transform="matrix(1.89704, 0, 0, 1.875, 249.15, 201.4)" opacity="1">
</g>
<g id="PathID_15" transform="matrix(1.89704, 0, 0, 1.875, 276.15, 201.4)" opacity="1">
<path style="fill:#FFFBFB;fill-opacity:1" d="M27.05 -16.05L2.85 -5.65L2.85 -10.15L22 -18.1L2.85 -26L2.85 -30.5L27.05 -20.25L27.05 -16.05" />
</g>
<g id="PathID_16" transform="matrix(1.89704, 0, 0, 1.875, 276.15, 201.4)" opacity="1">
</g>
</svg>
